<mxfile host="app.diagrams.net" modified="2022-03-31T15:17:24.570Z" agent="5.0 (X11; Linux x86_64) AppleWebKit/537.36 (KHTML, like Gecko) Chrome/99.0.4844.84 Safari/537.36" etag="HLyYOvP2RkgzugpUiw9F" version="17.3.0" type="github">
  <diagram id="FiLudgv4UGmtYQNG53DB" name="Page-1">
    <mxGraphModel dx="842" dy="1634" grid="1" gridSize="10" guides="1" tooltips="1" connect="1" arrows="1" fold="1" page="1" pageScale="1" pageWidth="827" pageHeight="1169" math="0" shadow="0">
      <root>
        <mxCell id="0" />
        <mxCell id="1" parent="0" />
        <mxCell id="fCbCj9mszyti0dIkxIe6-2" value="" style="rounded=0;whiteSpace=wrap;html=1;fillColor=#ffe6cc;strokeColor=#d79b00;" parent="1" vertex="1">
          <mxGeometry x="40" y="120" width="760" height="280" as="geometry" />
        </mxCell>
        <mxCell id="fCbCj9mszyti0dIkxIe6-3" value="" style="endArrow=none;html=1;rounded=0;" parent="1" edge="1">
          <mxGeometry width="50" height="50" relative="1" as="geometry">
            <mxPoint x="40" y="80" as="sourcePoint" />
            <mxPoint x="800" y="80" as="targetPoint" />
          </mxGeometry>
        </mxCell>
        <mxCell id="fCbCj9mszyti0dIkxIe6-4" value="Cloud Setup for Learning Environment" style="text;html=1;strokeColor=none;fillColor=none;align=left;verticalAlign=bottom;whiteSpace=wrap;rounded=0;fontStyle=0;fontSize=28;labelPosition=center;verticalLabelPosition=middle;" parent="1" vertex="1">
          <mxGeometry x="40" y="40" width="510" height="40" as="geometry" />
        </mxCell>
        <mxCell id="fCbCj9mszyti0dIkxIe6-5" value="AWS" style="text;html=1;strokeColor=none;fillColor=none;align=left;verticalAlign=middle;whiteSpace=wrap;rounded=0;fontSize=14;" parent="1" vertex="1">
          <mxGeometry x="50" y="120" width="120" height="30" as="geometry" />
        </mxCell>
        <mxCell id="fCbCj9mszyti0dIkxIe6-6" value="" style="rounded=0;whiteSpace=wrap;html=1;" parent="1" vertex="1">
          <mxGeometry x="80" y="160" width="680" height="200" as="geometry" />
        </mxCell>
        <mxCell id="fCbCj9mszyti0dIkxIe6-7" value="EC2 Linux Virtual Machine - Ubuntu Server" style="text;html=1;strokeColor=none;fillColor=none;align=left;verticalAlign=middle;whiteSpace=wrap;rounded=0;fontSize=14;" parent="1" vertex="1">
          <mxGeometry x="130" y="166" width="190" height="30" as="geometry" />
        </mxCell>
        <mxCell id="fCbCj9mszyti0dIkxIe6-8" value="MATE Desktop Environment" style="rounded=0;whiteSpace=wrap;html=1;fontSize=14;" parent="1" vertex="1">
          <mxGeometry x="120" y="200" width="140" height="140" as="geometry" />
        </mxCell>
        <mxCell id="fCbCj9mszyti0dIkxIe6-9" value="ROS, PCL, Gazebo, Other Packages" style="rounded=0;whiteSpace=wrap;html=1;fontSize=14;" parent="1" vertex="1">
          <mxGeometry x="580" y="196" width="140" height="140" as="geometry" />
        </mxCell>
        <mxCell id="fCbCj9mszyti0dIkxIe6-10" value="Chrome RDP Script" style="rounded=0;whiteSpace=wrap;html=1;fontSize=14;" parent="1" vertex="1">
          <mxGeometry x="350" y="200" width="140" height="140" as="geometry" />
        </mxCell>
        <mxCell id="fCbCj9mszyti0dIkxIe6-11" value="" style="rounded=0;whiteSpace=wrap;html=1;fillColor=#dae8fc;strokeColor=#6c8ebf;" parent="1" vertex="1">
          <mxGeometry x="40" y="520" width="760" height="280" as="geometry" />
        </mxCell>
        <mxCell id="fCbCj9mszyti0dIkxIe6-12" value="User Machine (win, mac linux, etc)" style="text;html=1;strokeColor=none;fillColor=none;align=left;verticalAlign=middle;whiteSpace=wrap;rounded=0;fontSize=14;" parent="1" vertex="1">
          <mxGeometry x="50" y="520" width="290" height="30" as="geometry" />
        </mxCell>
        <mxCell id="fCbCj9mszyti0dIkxIe6-13" value="" style="rounded=0;whiteSpace=wrap;html=1;" parent="1" vertex="1">
          <mxGeometry x="80" y="560" width="680" height="200" as="geometry" />
        </mxCell>
        <mxCell id="fCbCj9mszyti0dIkxIe6-14" value="Chrome Browser" style="text;html=1;strokeColor=none;fillColor=none;align=left;verticalAlign=middle;whiteSpace=wrap;rounded=0;fontSize=14;" parent="1" vertex="1">
          <mxGeometry x="90" y="560" width="190" height="30" as="geometry" />
        </mxCell>
        <mxCell id="fCbCj9mszyti0dIkxIe6-17" style="edgeStyle=orthogonalEdgeStyle;rounded=0;orthogonalLoop=1;jettySize=auto;html=1;fontSize=14;entryX=0.25;entryY=1;entryDx=0;entryDy=0;exitX=0.442;exitY=0;exitDx=0;exitDy=0;exitPerimeter=0;" parent="1" source="fCbCj9mszyti0dIkxIe6-15" target="fCbCj9mszyti0dIkxIe6-10" edge="1">
          <mxGeometry relative="1" as="geometry" />
        </mxCell>
        <mxCell id="fCbCj9mszyti0dIkxIe6-20" value="Signin" style="edgeLabel;html=1;align=center;verticalAlign=middle;resizable=0;points=[];fontSize=14;" parent="fCbCj9mszyti0dIkxIe6-17" vertex="1" connectable="0">
          <mxGeometry x="-0.1776" y="-1" relative="1" as="geometry">
            <mxPoint y="7" as="offset" />
          </mxGeometry>
        </mxCell>
        <mxCell id="fCbCj9mszyti0dIkxIe6-15" value="User Signs in" style="rounded=0;whiteSpace=wrap;html=1;" parent="1" vertex="1">
          <mxGeometry x="120" y="600" width="600" height="120" as="geometry" />
        </mxCell>
        <mxCell id="fCbCj9mszyti0dIkxIe6-16" value="Chrome Remote Desktop" style="text;html=1;strokeColor=none;fillColor=none;align=left;verticalAlign=middle;whiteSpace=wrap;rounded=0;fontSize=14;" parent="1" vertex="1">
          <mxGeometry x="130" y="600" width="190" height="30" as="geometry" />
        </mxCell>
        <mxCell id="fCbCj9mszyti0dIkxIe6-18" style="edgeStyle=orthogonalEdgeStyle;rounded=0;orthogonalLoop=1;jettySize=auto;html=1;entryX=0.558;entryY=0.017;entryDx=0;entryDy=0;entryPerimeter=0;fontSize=14;exitX=0.75;exitY=1;exitDx=0;exitDy=0;startArrow=classic;startFill=1;" parent="1" source="fCbCj9mszyti0dIkxIe6-10" target="fCbCj9mszyti0dIkxIe6-15" edge="1">
          <mxGeometry relative="1" as="geometry" />
        </mxCell>
        <mxCell id="fCbCj9mszyti0dIkxIe6-19" value="&lt;div&gt;User Streams&lt;/div&gt;&lt;div&gt;KVM&lt;/div&gt;" style="edgeLabel;html=1;align=center;verticalAlign=middle;resizable=0;points=[];fontSize=14;" parent="fCbCj9mszyti0dIkxIe6-18" vertex="1" connectable="0">
          <mxGeometry x="-0.1525" y="-3" relative="1" as="geometry">
            <mxPoint y="-21" as="offset" />
          </mxGeometry>
        </mxCell>
        <mxCell id="-mVsFdHJDbbOlhyKBQoK-1" value="" style="shape=image;verticalLabelPosition=bottom;labelBackgroundColor=default;verticalAlign=top;aspect=fixed;imageAspect=0;image=https://image.similarpng.com/very-thumbnail/2020/12/Google-chrome-logo-in-flat-design-on-transparent-PNG.png;" vertex="1" parent="1">
          <mxGeometry x="720" y="570" width="30" height="30" as="geometry" />
        </mxCell>
        <mxCell id="-mVsFdHJDbbOlhyKBQoK-2" value="" style="shape=image;verticalLabelPosition=bottom;labelBackgroundColor=default;verticalAlign=top;aspect=fixed;imageAspect=0;image=https://upload.wikimedia.org/wikipedia/commons/thumb/b/b5/Former_Ubuntu_logo.svg/2560px-Former_Ubuntu_logo.svg.png;clipPath=inset(0% 70.33% 0% 0%);" vertex="1" parent="1">
          <mxGeometry x="87" y="166" width="32.26" height="29" as="geometry" />
        </mxCell>
      </root>
    </mxGraphModel>
  </diagram>
</mxfile>
